<svg width="164" height="200" viewBox="0 0 164 264" fill="none" xmlns="http://www.w3.org/2000/svg">
<path d="M78.8536 102.376C79.7192 101.904 80.2701 101.589 80.821 101.274C84.6771 98.9905 89.7136 97.5733 91.9171 94.2664C93.8058 91.3532 92.3893 86.2355 92.5467 82.1413C93.1763 64.9771 106.869 50.1749 123.632 48.5215C142.125 46.7106 158.888 57.8122 162.822 74.6614C167.151 93.0854 158.258 110.958 141.417 117.257C127.881 122.296 115.447 120.091 104.43 110.643C102.777 109.226 101.675 108.832 99.708 110.092C96.0093 112.533 90.5793 113.793 88.6119 117.099C86.8806 120.013 89.3202 125.13 89.2415 129.225C89.0841 134.894 88.3758 140.641 87.8249 146.861C92.2319 149.381 97.1898 152.294 102.226 155.207C108.207 149.774 114.818 145.995 122.923 144.814C147.555 141.192 168.567 163.474 163.137 187.725C159.438 204.416 145.509 215.754 128.59 215.833C111.355 215.912 96.9537 204.889 93.4124 188.04C92.3893 183.315 92.7828 178.119 93.255 173.237C93.4911 170.639 93.0976 169.458 90.8941 168.277C86.8806 166.151 83.0245 163.71 79.011 161.348C72.4792 168.198 65.0817 173.159 56.1104 175.599C55.2447 175.836 54.2217 177.332 54.143 178.355C53.9069 182.686 53.8282 187.016 54.2217 191.268C54.3004 192.449 55.953 193.945 57.2121 194.417C81.6079 203.865 88.4545 234.729 70.2757 253.232C60.0452 263.625 44.3846 266.853 30.7702 261.342C17.5492 255.988 8.73528 242.603 8.81397 227.958C8.89267 213.707 17.9427 200.243 31.6359 195.204C35.8068 193.63 37.5381 191.819 36.9085 187.41C36.515 184.811 36.6724 182.134 36.9085 179.536C37.1446 176.859 35.8855 175.993 33.5246 175.363C13.3783 170.718 0 153.239 0 132.295C0 111.037 13.221 93.7153 33.6033 88.5188C34.6263 88.2826 35.5707 87.8889 36.8298 87.4165C36.8298 82.5349 36.9872 77.7321 36.6724 72.9293C36.5937 71.827 34.9411 70.2523 33.6033 69.7799C22.7432 65.6857 15.031 58.4421 11.0175 47.3405C4.64307 29.4677 13.9292 8.99662 31.3998 2.3829C50.0508 -4.6245 70.8266 4.35127 77.9092 22.3815C85.3853 41.5141 76.3353 62.2213 57.2121 69.3862C54.8512 70.2523 53.9856 71.3546 54.0643 73.8741C54.2217 77.6534 53.9856 81.5114 54.2217 85.2906C54.3004 86.3929 55.3234 88.1251 56.1891 88.3613C65.0817 90.8021 72.4005 95.6836 78.8536 102.376ZM18.1001 132.059C18.1001 146.546 29.7472 158.435 44.0699 158.435C58.6287 158.514 70.7479 146.546 70.7479 132.138C70.7479 117.729 58.7073 105.683 44.1486 105.762C29.7472 105.84 18.1001 117.572 18.1001 132.059ZM128.353 67.0242C118.989 67.0242 111.276 74.504 111.198 83.7947C111.04 93.1641 118.989 101.038 128.353 101.038C137.561 100.959 145.352 93.2429 145.352 84.0309C145.352 74.7402 137.64 67.0242 128.353 67.0242ZM127.803 197.252C137.246 197.488 145.194 189.929 145.352 180.402C145.509 171.427 137.954 163.632 128.904 163.317C119.539 162.923 111.434 170.56 111.198 180.009C110.962 189.221 118.438 197.015 127.803 197.252ZM44.3059 52.6157C53.7495 52.6157 61.383 45.1359 61.383 35.7665C61.383 26.4757 53.6708 18.7597 44.3846 18.681C35.0985 18.6023 27.465 26.2395 27.3863 35.6877C27.2289 45.0572 34.7837 52.6157 44.3059 52.6157ZM44.1486 211.66C34.705 211.739 27.1502 219.376 27.3076 228.745C27.465 238.194 35.1772 245.752 44.4633 245.595C53.8282 245.437 61.383 237.642 61.3043 228.431C61.3043 218.982 53.6708 211.581 44.1486 211.66Z" fill="white"/>
</svg>



